<svg width="32" height="32" viewBox="0 0 32 32" role="img" xmlns="http://www.w3.org/2000/svg" xmlns:xlink="http://www.w3.org/1999/xlink"><path d="m26.62006,4l-22.2403,0c-0.7622,0 -1.37976,0.59894 -1.37976,1.33804l0,21.56635c0,0.73891 0.61756,1.33803 1.37976,1.33803l11.97343,0l0,-9.38796l-3.25793,0l0,-3.65868l3.25793,0l0,-2.69815c0,-3.13113 1.97213,-4.83613 4.85266,-4.83613c1.37975,0 2.56571,0.09955 2.91135,0.14415l0,3.2722l-1.99788,0.00091c-1.56654,0 -1.86993,0.72183 -1.86993,1.7812l0,2.33582l3.7362,0l-0.48652,3.65868l-3.24968,0l0,9.38796l6.37067,0c0.76191,0 1.37975,-0.59912 1.37975,-1.33803l0,-21.56635c0,-0.7391 -0.61784,-1.33804 -1.37975,-1.33804" fill="#fff"></path></svg>